<?xml version="1.0" encoding="utf-8"?>
<!-- Generator: Adobe Illustrator 16.0.3, SVG Export Plug-In . SVG Version: 6.00 Build 0)  -->
<!DOCTYPE svg PUBLIC "-//W3C//DTD SVG 1.1//EN" "http://www.w3.org/Graphics/SVG/1.1/DTD/svg11.dtd">
<svg version="1.1" id="Capa_1" xmlns="http://www.w3.org/2000/svg" xmlns:xlink="http://www.w3.org/1999/xlink" x="0px" y="0px"
	 width="193px" height="193px" viewBox="0 0 193 193" enable-background="new 0 0 193 193" xml:space="preserve">
<g id="surface1">
	<path fill="#231F20" d="M110.641,137.91l5.516,0.215c0,0,1.727,0.105-0.758,0.918c0,0-2.754-0.109-3.023,0.273
		c0,0-0.918,1.078-2.922,0.375C109.453,139.691,104.109,138.395,110.641,137.91"/>
	<path fill="#6DCFF6" d="M96.379,178.547c45.242,0,81.922-36.68,81.922-81.926s-36.68-81.926-81.922-81.926
		c-45.25,0-81.926,36.68-81.926,81.926S51.129,178.547,96.379,178.547"/>
	<path fill="#FFFFFF" d="M96.379,172.813c42.074,0,76.188-34.113,76.188-76.191s-34.113-76.188-76.188-76.188
		c-42.082,0-76.191,34.109-76.191,76.188S54.297,172.813,96.379,172.813"/>
	<path fill="#231F20" d="M24.887,118.254l5.047-1.684l0.227,0.68l-3.078,3.992l3.969-1.324l0.211,0.637l-5.047,1.684l-0.227-0.684
		l3.082-3.988l-3.973,1.324L24.887,118.254"/>
	<path fill="#231F20" d="M26.945,124.188l5.688-0.27l0.313,0.715l-4.008,4.113l-0.32-0.734l1.227-1.199l-0.902-2.066l-1.699,0.121
		L26.945,124.188z M29.551,124.711l0.73,1.676l1.133-1.105c0.344-0.336,0.633-0.602,0.863-0.805
		c-0.348,0.07-0.699,0.117-1.059,0.137L29.551,124.711"/>
	<path fill="#231F20" d="M33.313,133.02l0.184,0.703c-0.578,0.148-1.09,0.129-1.539-0.063c-0.445-0.191-0.805-0.527-1.07-1.016
		c-0.273-0.5-0.395-0.965-0.367-1.391c0.031-0.426,0.195-0.824,0.496-1.203c0.297-0.375,0.668-0.688,1.113-0.934
		c0.488-0.266,0.961-0.402,1.426-0.418c0.465-0.012,0.883,0.102,1.258,0.34c0.375,0.242,0.676,0.566,0.902,0.977
		c0.254,0.465,0.352,0.922,0.285,1.371c-0.063,0.449-0.277,0.852-0.641,1.215l-0.473-0.527c0.277-0.297,0.441-0.59,0.48-0.879
		c0.043-0.289-0.02-0.59-0.191-0.902c-0.195-0.359-0.445-0.609-0.75-0.758c-0.305-0.145-0.625-0.188-0.969-0.125
		s-0.668,0.176-0.977,0.344c-0.398,0.219-0.711,0.465-0.945,0.742c-0.23,0.277-0.355,0.578-0.367,0.902s0.059,0.629,0.211,0.91
		c0.191,0.348,0.449,0.582,0.781,0.715C32.488,133.152,32.875,133.152,33.313,133.02"/>
	<path fill="#231F20" d="M33.316,136.574l4.477-2.875l0.379,0.594l-4.477,2.871L33.316,136.574"/>
	<path fill="#231F20" d="M37.109,137.691c0.707-0.527,1.402-0.75,2.086-0.672c0.684,0.082,1.25,0.422,1.699,1.023
		c0.297,0.395,0.465,0.82,0.516,1.277c0.047,0.453-0.035,0.891-0.246,1.309s-0.531,0.781-0.957,1.102
		c-0.434,0.324-0.883,0.527-1.355,0.605c-0.473,0.082-0.914,0.027-1.324-0.164c-0.414-0.191-0.758-0.473-1.035-0.84
		c-0.301-0.402-0.473-0.832-0.516-1.293c-0.047-0.457,0.039-0.895,0.254-1.309C36.441,138.316,36.734,137.973,37.109,137.691z
		 M37.535,138.281c-0.512,0.383-0.816,0.824-0.902,1.32c-0.09,0.496,0.02,0.953,0.332,1.371c0.316,0.426,0.727,0.664,1.23,0.715
		s1.031-0.129,1.578-0.539c0.348-0.258,0.605-0.543,0.777-0.855s0.242-0.633,0.219-0.965c-0.027-0.332-0.145-0.637-0.355-0.922
		c-0.301-0.398-0.691-0.641-1.184-0.723C38.742,137.602,38.176,137.801,37.535,138.281"/>
	<path fill="#231F20" d="M45.906,149.09l0.371,0.621c-0.516,0.305-1.012,0.426-1.496,0.367s-0.922-0.285-1.309-0.68
		c-0.402-0.406-0.648-0.816-0.738-1.234s-0.043-0.848,0.141-1.293s0.453-0.848,0.816-1.203c0.391-0.391,0.809-0.656,1.25-0.797
		s0.875-0.148,1.305-0.023c0.426,0.125,0.805,0.355,1.137,0.688c0.371,0.379,0.59,0.793,0.652,1.238
		c0.063,0.449-0.027,0.898-0.277,1.344l-0.605-0.375c0.191-0.359,0.266-0.688,0.223-0.977c-0.039-0.289-0.184-0.563-0.434-0.813
		c-0.289-0.293-0.598-0.465-0.93-0.52c-0.332-0.059-0.656-0.008-0.969,0.145c-0.313,0.156-0.59,0.355-0.84,0.602
		c-0.32,0.32-0.555,0.645-0.703,0.977s-0.184,0.652-0.105,0.969c0.078,0.313,0.23,0.586,0.457,0.816
		c0.277,0.277,0.594,0.434,0.945,0.469C45.152,149.441,45.52,149.336,45.906,149.09"/>
	<path fill="#231F20" d="M48.34,150.387c0.563-0.68,1.188-1.059,1.871-1.137c0.688-0.082,1.316,0.121,1.891,0.602
		c0.379,0.313,0.645,0.688,0.797,1.117c0.152,0.434,0.176,0.879,0.063,1.332c-0.109,0.457-0.332,0.887-0.672,1.297
		c-0.348,0.414-0.738,0.715-1.18,0.902c-0.438,0.188-0.883,0.238-1.328,0.148s-0.844-0.281-1.199-0.578
		c-0.387-0.32-0.652-0.699-0.801-1.137c-0.152-0.434-0.172-0.879-0.059-1.332C47.836,151.152,48.039,150.746,48.34,150.387z
		 M48.891,150.859c-0.414,0.492-0.605,0.992-0.574,1.496c0.027,0.504,0.242,0.922,0.645,1.258c0.406,0.34,0.859,0.473,1.363,0.406
		c0.5-0.066,0.969-0.363,1.406-0.887c0.277-0.336,0.465-0.672,0.559-1.016c0.094-0.34,0.09-0.672-0.012-0.988
		s-0.289-0.586-0.559-0.813c-0.383-0.32-0.82-0.461-1.316-0.43C49.906,149.922,49.402,150.246,48.891,150.859"/>
	<path fill="#231F20" d="M52.531,157.07l3.004-4.391l0.594,0.406l-0.043,5.039l2.363-3.453L59,155.051l-3.004,4.391l-0.594-0.406
		l0.047-5.039l-2.363,3.453L52.531,157.07"/>
	<path fill="#231F20" d="M61.203,162.488l2.414-4.738l0.629,0.32l-2.129,4.18l2.328,1.188l-0.281,0.559L61.203,162.488"/>
	<path fill="#231F20" d="M65.719,164.742l3.898-4.148l0.719,0.293l-0.016,5.746l-0.742-0.305l0.047-1.715l-2.086-0.859l-1.133,1.27
		L65.719,164.742z M67.953,163.305l1.691,0.699l0.043-1.586c0.016-0.477,0.035-0.871,0.063-1.18
		c-0.199,0.297-0.422,0.574-0.664,0.836L67.953,163.305"/>
	<path fill="#231F20" d="M75.105,168.215l1.379-5.141l1.941,0.523c0.344,0.094,0.602,0.18,0.77,0.262
		c0.242,0.109,0.434,0.246,0.574,0.41c0.137,0.164,0.23,0.363,0.277,0.605c0.047,0.238,0.035,0.488-0.031,0.742
		c-0.117,0.438-0.359,0.77-0.719,0.996s-0.902,0.242-1.629,0.047l-1.32-0.355l-0.563,2.094L75.105,168.215z M76.508,165.699
		l1.332,0.359c0.441,0.117,0.777,0.121,1.004,0.008c0.23-0.113,0.383-0.32,0.465-0.617c0.059-0.215,0.051-0.414-0.016-0.598
		c-0.066-0.18-0.184-0.32-0.348-0.418c-0.109-0.059-0.316-0.133-0.625-0.215l-1.316-0.355L76.508,165.699"/>
	<path fill="#231F20" d="M80.219,169.551l2.969-4.859l0.766,0.145l1.16,5.625l-0.789-0.145l-0.305-1.691l-2.219-0.41l-0.848,1.473
		L80.219,169.551z M82.113,167.691l1.801,0.332l-0.285-1.559c-0.082-0.469-0.141-0.859-0.18-1.164
		c-0.137,0.328-0.297,0.645-0.48,0.953L82.113,167.691"/>
	<path fill="#231F20" d="M87.91,170.789l0.504-4.668l-1.738-0.188l0.07-0.621l4.172,0.453l-0.066,0.621l-1.738-0.188l-0.504,4.664
		L87.91,170.789"/>
	<path fill="#231F20" d="M92.586,171.199l0.121-5.32l2.352,0.051c0.473,0.012,0.832,0.066,1.074,0.168
		c0.246,0.102,0.438,0.277,0.582,0.52c0.141,0.246,0.207,0.516,0.199,0.809c-0.008,0.379-0.137,0.691-0.387,0.945
		s-0.629,0.41-1.137,0.469c0.184,0.094,0.32,0.188,0.414,0.277c0.203,0.191,0.391,0.43,0.566,0.719l0.887,1.465l-0.879-0.02
		l-0.676-1.117c-0.199-0.324-0.359-0.574-0.492-0.746c-0.125-0.172-0.242-0.293-0.348-0.363c-0.102-0.074-0.207-0.121-0.316-0.152
		c-0.078-0.02-0.207-0.031-0.391-0.035l-0.813-0.016l-0.055,2.363L92.586,171.199z M93.355,168.246l1.508,0.035
		c0.324,0.004,0.574-0.023,0.758-0.086c0.18-0.063,0.32-0.164,0.418-0.313c0.098-0.145,0.148-0.301,0.152-0.477
		c0.004-0.25-0.082-0.461-0.262-0.629c-0.176-0.168-0.461-0.254-0.855-0.262l-1.68-0.039L93.355,168.246"/>
	<path fill="#231F20" d="M99.504,171.199l-0.242-5.313l0.703-0.035l0.242,5.316L99.504,171.199"/>
	<path fill="#231F20" d="M102.281,171.074l1.43-5.512l0.77-0.086l2.746,5.047l-0.797,0.09l-0.785-1.527l-2.238,0.25l-0.387,1.656
		L102.281,171.074z M103.551,168.742l1.82-0.203l-0.723-1.406c-0.215-0.43-0.387-0.785-0.512-1.066
		c-0.035,0.355-0.098,0.707-0.184,1.051L103.551,168.742"/>
	<path fill="#231F20" d="M112.199,169.609l-1.254-5.172l3.738-0.906l0.148,0.609l-3.055,0.742l0.383,1.578l2.863-0.691l0.148,0.605
		l-2.863,0.695l0.426,1.762l3.172-0.77l0.148,0.609L112.199,169.609"/>
	<path fill="#231F20" d="M118.422,167.984l-1.715-5.035l0.68-0.23l4.008,3.059l-1.344-3.965l0.633-0.215l1.711,5.039l-0.68,0.23
		l-4.008-3.059l1.348,3.961L118.422,167.984"/>
	<path fill="#231F20" d="M128.016,164.293l-2.418-4.738l0.934-0.477l2.848,2.777c0.262,0.258,0.457,0.453,0.586,0.582
		c-0.035-0.199-0.082-0.496-0.137-0.887l-0.543-3.879l0.844-0.43l2.422,4.738l-0.609,0.309l-2.023-3.965l0.641,4.672l-0.563,0.289
		l-3.434-3.332l2.059,4.031L128.016,164.293"/>
	<path fill="#231F20" d="M134.328,160.957l-1.145-5.578l0.656-0.418l4.688,3.32l-0.676,0.434l-1.375-1.027l-1.902,1.211l0.383,1.656
		L134.328,160.957z M134.445,158.301l1.543-0.98l-1.27-0.949c-0.383-0.285-0.691-0.531-0.93-0.727
		c0.125,0.332,0.227,0.672,0.301,1.023L134.445,158.301"/>
	<path fill="#231F20" d="M140.918,156.527l-1.355-1.801l-3.488-1.215l0.676-0.508l1.816,0.652c0.332,0.125,0.656,0.254,0.973,0.387
		c-0.039-0.32-0.07-0.688-0.094-1.102l-0.125-1.871l0.652-0.496l0.152,3.73l1.355,1.797L140.918,156.527"/>
	<path fill="#231F20" d="M142.93,151.684c-0.594-0.656-0.883-1.328-0.867-2.016s0.301-1.285,0.855-1.789
		c0.363-0.332,0.77-0.539,1.223-0.633c0.449-0.09,0.891-0.051,1.324,0.121c0.438,0.172,0.832,0.453,1.191,0.848
		c0.363,0.398,0.605,0.828,0.73,1.293c0.125,0.461,0.113,0.906-0.039,1.336c-0.148,0.426-0.395,0.797-0.738,1.109
		c-0.371,0.336-0.781,0.547-1.234,0.637c-0.453,0.086-0.895,0.043-1.328-0.129C143.613,152.285,143.242,152.027,142.93,151.684z
		 M143.473,151.203c0.434,0.473,0.898,0.73,1.402,0.773s0.949-0.113,1.336-0.461c0.391-0.359,0.59-0.789,0.59-1.297
		c0.004-0.504-0.223-1.012-0.684-1.52c-0.293-0.32-0.602-0.551-0.926-0.691c-0.328-0.141-0.652-0.184-0.98-0.125
		s-0.621,0.207-0.883,0.441c-0.371,0.336-0.574,0.75-0.609,1.246S142.934,150.609,143.473,151.203"/>
	<path fill="#231F20" d="M152.441,145.945l-4.09-3.402l1.172-1.41c0.266-0.316,0.484-0.543,0.664-0.68
		c0.25-0.188,0.512-0.305,0.793-0.355c0.359-0.063,0.73-0.031,1.102,0.098c0.371,0.133,0.742,0.348,1.105,0.648
		c0.309,0.262,0.555,0.527,0.734,0.797c0.184,0.273,0.305,0.531,0.367,0.777c0.063,0.242,0.082,0.469,0.063,0.68
		c-0.023,0.211-0.09,0.43-0.203,0.656c-0.113,0.23-0.273,0.469-0.48,0.715L152.441,145.945z M152.41,145.004l0.727-0.875
		c0.223-0.27,0.375-0.5,0.453-0.695c0.074-0.195,0.105-0.379,0.094-0.543c-0.023-0.234-0.113-0.48-0.27-0.73
		c-0.156-0.254-0.391-0.508-0.699-0.766c-0.43-0.355-0.816-0.559-1.164-0.609s-0.641-0.008-0.887,0.129
		c-0.176,0.098-0.398,0.309-0.668,0.629l-0.711,0.859L152.41,145.004"/>
	<path fill="#231F20" d="M156.742,140.574l-4.375-3.027l2.188-3.164l0.516,0.355l-1.789,2.586l1.34,0.926l1.676-2.422l0.516,0.355
		l-1.676,2.422l1.492,1.035l1.855-2.688l0.516,0.355L156.742,140.574"/>
	<path fill="#231F20" d="M162.996,130.332l-0.301,0.574l-3.691-1.918c0.059,0.211,0.098,0.465,0.113,0.758
		c0.016,0.297,0.012,0.555-0.016,0.77l-0.563-0.293c0.016-0.402-0.023-0.781-0.113-1.137s-0.211-0.637-0.363-0.844l0.191-0.371
		L162.996,130.332"/>
	<path fill="#231F20" d="M162.098,125.473c-0.199,0.211-0.406,0.344-0.629,0.391c-0.219,0.047-0.445,0.023-0.68-0.078
		c-0.355-0.152-0.602-0.406-0.734-0.766s-0.105-0.754,0.074-1.18c0.184-0.426,0.453-0.719,0.813-0.871
		c0.359-0.156,0.715-0.156,1.07-0.008c0.227,0.098,0.398,0.242,0.516,0.434c0.117,0.188,0.168,0.426,0.156,0.707
		c0.227-0.262,0.484-0.422,0.77-0.484c0.285-0.066,0.582-0.031,0.887,0.098c0.418,0.18,0.707,0.477,0.863,0.895
		s0.133,0.867-0.074,1.352c-0.207,0.48-0.516,0.813-0.926,0.984c-0.41,0.176-0.832,0.172-1.262-0.012
		c-0.316-0.137-0.551-0.332-0.695-0.586C162.098,126.098,162.051,125.805,162.098,125.473z M161.031,125.16
		c0.23,0.098,0.449,0.105,0.656,0.02c0.211-0.086,0.367-0.25,0.469-0.488s0.113-0.457,0.027-0.668
		c-0.082-0.207-0.227-0.355-0.438-0.445c-0.219-0.094-0.434-0.098-0.648-0.012c-0.215,0.09-0.371,0.246-0.469,0.477
		c-0.102,0.234-0.109,0.457-0.027,0.668S160.828,125.074,161.031,125.16z M163.215,126.32c0.172,0.074,0.352,0.105,0.547,0.094
		c0.199-0.012,0.371-0.078,0.527-0.203c0.16-0.125,0.277-0.277,0.355-0.465c0.125-0.289,0.133-0.566,0.027-0.832
		c-0.105-0.262-0.301-0.457-0.586-0.578c-0.293-0.125-0.574-0.133-0.844-0.02c-0.273,0.109-0.473,0.309-0.598,0.602
		c-0.121,0.285-0.125,0.559-0.016,0.824C162.734,126.008,162.93,126.199,163.215,126.32"/>
	<path fill="#231F20" d="M167.277,120.035l-0.207,0.613l-3.941-1.344c0.094,0.199,0.168,0.441,0.227,0.734
		c0.059,0.289,0.094,0.543,0.098,0.758l-0.598-0.203c-0.043-0.402-0.137-0.77-0.281-1.109c-0.145-0.336-0.305-0.594-0.488-0.777
		l0.137-0.395L167.277,120.035"/>
	<path fill="#231F20" d="M165.672,116.398c-0.609-0.156-1.086-0.348-1.426-0.566c-0.34-0.223-0.578-0.484-0.715-0.781
		c-0.137-0.301-0.156-0.637-0.059-1.012c0.07-0.277,0.191-0.508,0.355-0.691c0.164-0.18,0.371-0.313,0.617-0.391
		c0.242-0.078,0.527-0.121,0.848-0.121c0.32,0.004,0.738,0.07,1.246,0.199c0.605,0.156,1.078,0.348,1.422,0.566
		c0.34,0.223,0.578,0.48,0.715,0.781c0.133,0.297,0.152,0.637,0.055,1.016c-0.129,0.496-0.402,0.84-0.824,1.035
		C167.383,116.66,166.641,116.652,165.672,116.398z M165.84,115.75c0.852,0.219,1.441,0.266,1.77,0.141
		c0.332-0.125,0.535-0.336,0.609-0.625c0.074-0.293,0-0.574-0.23-0.844c-0.227-0.27-0.766-0.516-1.617-0.734
		c-0.848-0.223-1.438-0.27-1.766-0.145c-0.332,0.129-0.535,0.34-0.613,0.637c-0.074,0.289-0.012,0.555,0.188,0.797
		C164.438,115.273,164.992,115.531,165.84,115.75"/>
	<path fill="#6DCFF6" d="M96.379,163.668c37.031,0,67.051-30.02,67.051-67.047s-30.02-67.043-67.051-67.043
		c-37.027,0-67.047,30.016-67.047,67.043S59.352,163.668,96.379,163.668"/>
	<path fill="#231F20" d="M49.867,45.539l-3.441-3.984l2.871-2.477l0.402,0.465l-2.344,2.027l1.063,1.23l2.195-1.898l0.402,0.469
		l-2.195,1.895l1.168,1.355l2.441-2.102l0.402,0.465L49.867,45.539"/>
	<path fill="#231F20" d="M53.563,40.516l0.457-0.438c0.25,0.316,0.473,0.496,0.672,0.535c0.199,0.043,0.395-0.008,0.586-0.148
		c0.141-0.102,0.242-0.227,0.297-0.363c0.059-0.141,0.063-0.281,0.023-0.422c-0.043-0.141-0.152-0.332-0.332-0.574l-2.137-2.934
		l0.559-0.41l2.117,2.902c0.258,0.355,0.418,0.664,0.473,0.922c0.055,0.262,0.027,0.508-0.086,0.746
		c-0.113,0.234-0.297,0.445-0.551,0.629c-0.375,0.273-0.738,0.375-1.094,0.309C54.195,41.199,53.863,40.949,53.563,40.516"/>
	<path fill="#231F20" d="M58.93,38.559l-2.734-4.496l3.238-1.973l0.32,0.523l-2.648,1.613l0.848,1.391l2.477-1.508l0.32,0.523
		l-2.477,1.508l0.93,1.531l2.75-1.676l0.32,0.527L58.93,38.559"/>
	<path fill="#231F20" d="M64.391,35.367l-2.301-4.734l2.09-1.016c0.418-0.203,0.758-0.316,1.02-0.336
		c0.258-0.02,0.508,0.043,0.742,0.195s0.418,0.359,0.543,0.617c0.164,0.336,0.191,0.672,0.09,1.008
		c-0.105,0.336-0.371,0.645-0.793,0.926c0.207,0,0.371,0.02,0.492,0.055c0.266,0.078,0.539,0.207,0.824,0.379l1.441,0.895
		l-0.781,0.379l-1.102-0.684c-0.32-0.195-0.574-0.34-0.766-0.434s-0.352-0.148-0.473-0.164s-0.238-0.012-0.348,0.012
		c-0.078,0.02-0.195,0.066-0.355,0.145l-0.727,0.352l1.023,2.105L64.391,35.367z M63.727,32.418l1.34-0.652
		c0.285-0.137,0.492-0.277,0.625-0.414s0.211-0.289,0.23-0.461s-0.008-0.332-0.082-0.484c-0.105-0.223-0.277-0.367-0.508-0.434
		c-0.234-0.066-0.523-0.012-0.875,0.156l-1.488,0.727L63.727,32.418"/>
	<path fill="#231F20" d="M73.355,29.52l0.711-0.074c0.063,0.59-0.035,1.09-0.285,1.5c-0.254,0.414-0.637,0.715-1.152,0.906
		c-0.531,0.195-1.008,0.25-1.418,0.156c-0.414-0.09-0.785-0.309-1.113-0.656c-0.324-0.348-0.574-0.754-0.75-1.227
		c-0.188-0.516-0.258-1-0.199-1.457c0.055-0.457,0.227-0.852,0.516-1.184s0.652-0.582,1.09-0.742
		c0.496-0.184,0.957-0.211,1.387-0.086c0.43,0.129,0.797,0.395,1.098,0.801l-0.582,0.387c-0.25-0.316-0.512-0.516-0.793-0.598
		c-0.281-0.086-0.586-0.063-0.918,0.059c-0.379,0.141-0.664,0.348-0.855,0.625c-0.188,0.277-0.277,0.59-0.27,0.934
		c0.012,0.348,0.078,0.68,0.195,1.008c0.156,0.418,0.352,0.762,0.594,1.031c0.238,0.27,0.516,0.43,0.832,0.488
		s0.625,0.035,0.93-0.078c0.367-0.137,0.641-0.355,0.816-0.66C73.363,30.344,73.418,29.969,73.355,29.52"/>
	<path fill="#231F20" d="M76.961,30.332l-1.453-5.063l0.668-0.191l1.453,5.063L76.961,30.332"/>
	<path fill="#231F20" d="M81.531,29.164l-0.973-4.547l-1.695,0.363l-0.129-0.602l4.07-0.871l0.129,0.602l-1.695,0.363l0.973,4.547
		L81.531,29.164"/>
	<path fill="#231F20" d="M85.371,25.801c-0.102-0.867,0.051-1.574,0.461-2.121c0.406-0.547,0.98-0.863,1.719-0.949
		c0.484-0.059,0.934,0.008,1.352,0.191c0.414,0.184,0.75,0.473,1,0.859c0.254,0.391,0.41,0.844,0.473,1.367
		c0.063,0.531,0.012,1.016-0.152,1.461c-0.168,0.445-0.434,0.797-0.801,1.055s-0.777,0.414-1.234,0.469
		c-0.492,0.059-0.949-0.004-1.363-0.195c-0.418-0.191-0.75-0.477-0.996-0.867C85.578,26.684,85.426,26.262,85.371,25.801z
		 M86.082,25.73c0.074,0.625,0.305,1.102,0.688,1.422c0.383,0.324,0.832,0.453,1.344,0.395c0.523-0.063,0.934-0.297,1.227-0.703
		c0.297-0.406,0.402-0.945,0.324-1.613c-0.051-0.426-0.164-0.789-0.348-1.09c-0.184-0.297-0.422-0.52-0.723-0.66
		c-0.297-0.141-0.621-0.191-0.969-0.152c-0.492,0.059-0.895,0.277-1.211,0.656C86.102,24.363,85.988,24.941,86.082,25.73"/>
	<path fill="#231F20" d="M95.57,27.527l2.145-5.219l0.754,0.02l2.023,5.313l-0.793-0.02l-0.566-1.605l-2.227-0.051l-0.605,1.578
		L95.57,27.527z M97.129,25.398l1.805,0.039l-0.52-1.465c-0.156-0.449-0.273-0.816-0.359-1.105c-0.078,0.34-0.184,0.672-0.316,1.004
		L97.129,25.398"/>
	<path fill="#231F20" d="M102.492,27.801l0.617-5.23l2.305,0.273c0.465,0.055,0.813,0.141,1.043,0.266
		c0.23,0.121,0.402,0.313,0.52,0.566s0.156,0.523,0.125,0.813c-0.043,0.371-0.203,0.668-0.469,0.895
		c-0.27,0.227-0.66,0.348-1.164,0.355c0.172,0.109,0.301,0.215,0.383,0.309c0.18,0.211,0.344,0.465,0.488,0.766l0.734,1.527
		l-0.859-0.102l-0.563-1.168c-0.164-0.336-0.301-0.598-0.414-0.781c-0.109-0.18-0.211-0.309-0.309-0.391
		c-0.094-0.078-0.191-0.137-0.297-0.176c-0.074-0.027-0.203-0.051-0.379-0.07l-0.801-0.094l-0.273,2.324L102.492,27.801z
		 M103.523,24.957l1.484,0.172c0.313,0.039,0.563,0.035,0.746-0.008c0.188-0.047,0.336-0.133,0.441-0.266
		c0.109-0.133,0.176-0.285,0.195-0.453c0.031-0.246-0.035-0.461-0.195-0.641c-0.16-0.176-0.434-0.289-0.82-0.336l-1.645-0.195
		L103.523,24.957"/>
	<path fill="#231F20" d="M111.98,27.215l0.133-0.602l2.168,0.48l-0.422,1.91c-0.391,0.191-0.781,0.313-1.164,0.367
		s-0.762,0.039-1.133-0.043c-0.504-0.109-0.941-0.32-1.305-0.625s-0.605-0.684-0.727-1.141c-0.117-0.457-0.121-0.934-0.008-1.441
		c0.109-0.5,0.316-0.945,0.621-1.332c0.305-0.391,0.676-0.645,1.117-0.77c0.438-0.125,0.91-0.129,1.422-0.016
		c0.371,0.082,0.691,0.219,0.965,0.402c0.273,0.188,0.469,0.406,0.594,0.66c0.121,0.254,0.191,0.563,0.203,0.926l-0.66,0.031
		c-0.02-0.277-0.07-0.504-0.148-0.68c-0.082-0.176-0.219-0.332-0.41-0.469s-0.414-0.234-0.676-0.293
		c-0.309-0.066-0.586-0.078-0.832-0.035c-0.246,0.047-0.457,0.133-0.629,0.254c-0.176,0.125-0.32,0.27-0.438,0.438
		c-0.199,0.293-0.34,0.625-0.422,0.996c-0.102,0.461-0.109,0.863-0.02,1.207c0.086,0.344,0.266,0.625,0.531,0.84
		s0.57,0.363,0.906,0.438c0.293,0.063,0.59,0.07,0.895,0.016c0.305-0.051,0.547-0.125,0.719-0.223l0.211-0.965L111.98,27.215"/>
	<path fill="#231F20" d="M116.082,30.391l1.637-5.004l3.602,1.176l-0.191,0.586l-2.945-0.961l-0.504,1.543l2.758,0.902l-0.191,0.586
		l-2.758-0.902l-0.559,1.703l3.063,1l-0.191,0.586L116.082,30.391"/>
	<path fill="#231F20" d="M122.023,32.449l2.105-4.828l0.656,0.289l0.887,4.898l1.648-3.793l0.617,0.266l-2.102,4.828l-0.66-0.285
		l-0.883-4.898l-1.652,3.793L122.023,32.449"/>
	<path fill="#231F20" d="M129.313,35.91l2.242-4.074l-1.523-0.84l0.297-0.539l3.652,2.008l-0.297,0.539l-1.523-0.836l-2.238,4.074
		L129.313,35.91"/>
	<path fill="#231F20" d="M133.383,38.305l2.848-4.43l0.582,0.375l-2.848,4.43L133.383,38.305"/>
	<path fill="#231F20" d="M136.203,40.156l3.164-4.203l0.574,0.43l-0.277,4.969l2.488-3.305l0.535,0.402l-3.168,4.207l-0.57-0.43
		l0.277-4.973l-2.488,3.309L136.203,40.156"/>
	<path fill="#231F20" d="M143.074,42.262c0.594-0.641,1.23-0.984,1.91-1.031c0.68-0.043,1.293,0.188,1.84,0.691
		c0.359,0.332,0.602,0.715,0.734,1.148c0.129,0.438,0.129,0.875-0.004,1.32c-0.129,0.445-0.375,0.863-0.73,1.25
		c-0.363,0.391-0.766,0.668-1.211,0.832c-0.441,0.164-0.883,0.188-1.32,0.078s-0.82-0.32-1.16-0.633
		c-0.363-0.336-0.609-0.723-0.738-1.164c-0.125-0.438-0.121-0.879,0.012-1.32S142.762,42.602,143.074,42.262z M143.594,42.754
		c-0.43,0.465-0.645,0.949-0.637,1.449c0.004,0.5,0.195,0.926,0.578,1.277c0.387,0.355,0.828,0.516,1.328,0.477
		s0.98-0.309,1.438-0.805c0.289-0.316,0.488-0.637,0.598-0.973c0.113-0.332,0.121-0.66,0.035-0.977
		c-0.086-0.32-0.258-0.598-0.516-0.836c-0.363-0.336-0.793-0.5-1.285-0.492C144.645,41.879,144.129,42.172,143.594,42.754"/>
	<path fill="#F8DA81" d="M55.313,43.883l-5.84,13.832L36.719,65.93v16.211l-7.352,13.906l7.352,12.035l-1.512,15.992l13.184,8
		l5.117,16.027l16.5,3.207l11.418,10.629l14.953-5.656l15.348,5.617l11.457-10.59l15.094-2.379l5.875-14.262l12.82-9.441
		l-0.719-15.418l7.176-13.188l-7.391-12.969l1.402-14.699l-13.508-8.648l-3.895-14.516l-15.777-2.125l-10.949-11.926l-15.641,4.359
		L83.41,30.801L71.734,41.719L55.313,43.883"/>
	<path fill="none" stroke="#231F20" stroke-width="0.5" stroke-miterlimit="2.6131" d="M55.313,43.883l-5.84,13.832L36.719,65.93
		v16.211l-7.352,13.906l7.352,12.035l-1.512,15.992l13.184,8l5.117,16.027l16.5,3.207l11.418,10.629l14.953-5.656l15.348,5.617
		l11.457-10.59l15.094-2.375l5.875-14.266l12.82-9.441l-0.719-15.418l7.176-13.188l-7.391-12.969l1.402-14.699l-13.508-8.648
		l-3.895-14.516l-15.777-2.125l-10.949-11.926l-15.641,4.359L83.41,30.801L71.734,41.719L55.313,43.883z"/>
	<path fill="#231F20" d="M95.082,118.09l0.031,38.621L95.082,118.09"/>
	<path fill="none" stroke="#231F20" stroke-width="0.7598" stroke-miterlimit="2.6131" d="M95.082,118.09l0.035,38.621
		L95.082,118.09z"/>
	<path fill="#231F20" d="M99.371,118.004l-0.035,39.355L99.371,118.004"/>
	<path fill="none" stroke="#231F20" stroke-width="0.7598" stroke-miterlimit="2.6131" d="M99.371,118.004l-0.035,39.355
		L99.371,118.004z"/>
	<path fill="#231F20" d="M86.594,115.801l-18.676,35.113L86.594,115.801"/>
	<path fill="none" stroke="#231F20" stroke-width="0.7598" stroke-miterlimit="2.6131" d="M86.594,115.801l-18.676,35.113
		L86.594,115.801z"/>
	<path fill="#231F20" d="M90.25,117.227l-18.656,35.563L90.25,117.227"/>
	<path fill="none" stroke="#231F20" stroke-width="0.7598" stroke-miterlimit="2.6131" d="M90.25,117.227l-18.656,35.563
		L90.25,117.227z"/>
	<path fill="#231F20" d="M77.211,106.203l-30.297,25.043L77.211,106.203"/>
	<path fill="none" stroke="#231F20" stroke-width="0.7598" stroke-miterlimit="2.6131" d="M77.211,106.203l-30.297,25.043
		L77.211,106.203z"/>
	<path fill="#231F20" d="M79.086,109.375l-29.832,25.328L79.086,109.375"/>
	<path fill="none" stroke="#231F20" stroke-width="0.7598" stroke-miterlimit="2.6131" d="M79.086,109.375l-29.832,25.328
		L79.086,109.375z"/>
	<path fill="#231F20" d="M74.977,98.352l-38.617,9.152L74.977,98.352"/>
	<path fill="none" stroke="#231F20" stroke-width="0.7598" stroke-miterlimit="2.6131" d="M74.977,98.352l-38.617,9.152
		L74.977,98.352z"/>
	<path fill="#231F20" d="M75.629,102.168l-39.305,9.91L75.629,102.168"/>
	<path fill="none" stroke="#231F20" stroke-width="0.7598" stroke-miterlimit="2.6131" d="M75.629,102.168l-39.305,9.91
		L75.629,102.168z"/>
	<path fill="#231F20" d="M76.566,88.266l-39.809-8.902L76.566,88.266"/>
	<path fill="none" stroke="#231F20" stroke-width="0.7598" stroke-miterlimit="2.6131" d="M76.566,88.266l-39.809-8.902
		L76.566,88.266z"/>
	<path fill="#231F20" d="M75.34,92.152l-39.449-8.535L75.34,92.152"/>
	<path fill="none" stroke="#231F20" stroke-width="0.7598" stroke-miterlimit="2.6131" d="M75.34,92.152l-39.449-8.535L75.34,92.152
		z"/>
	<path fill="#231F20" d="M82.109,80.555L49.867,56.672L82.109,80.555"/>
	<path fill="none" stroke="#231F20" stroke-width="0.7598" stroke-miterlimit="2.6131" d="M82.109,80.555L49.867,56.672
		L82.109,80.555z"/>
	<path fill="#231F20" d="M79.52,83.367L46.914,59.371L79.52,83.367"/>
	<path fill="none" stroke="#231F20" stroke-width="0.7598" stroke-miterlimit="2.6131" d="M79.52,83.367L46.914,59.371L79.52,83.367
		z"/>
	<path fill="#515254" d="M90.496,75.926L73.395,40.207L90.496,75.926"/>
	<path fill="none" stroke="#231F20" stroke-width="0.7598" stroke-miterlimit="2.6131" d="M90.496,75.926L73.395,40.207
		L90.496,75.926z"/>
	<path fill="#515254" d="M86.941,77.383L69.359,42.008L86.941,77.383"/>
	<path fill="none" stroke="#231F20" stroke-width="0.7598" stroke-miterlimit="2.6131" d="M86.941,77.383L69.359,42.008
		L86.941,77.383z"/>
	<path fill="#231F20" d="M106.18,115.715l18.91,35.309L106.18,115.715"/>
	<path fill="none" stroke="#231F20" stroke-width="0.7598" stroke-miterlimit="2.6131" d="M106.18,115.715l18.91,35.309
		L106.18,115.715z"/>
	<path fill="#231F20" d="M102.602,117.227l18.813,35.777L102.602,117.227"/>
	<path fill="none" stroke="#231F20" stroke-width="0.7598" stroke-miterlimit="2.6131" d="M102.602,117.227l18.813,35.777
		L102.602,117.227z"/>
	<path fill="#231F20" d="M115.867,105.699l30.012,27.668L115.867,105.699"/>
	<path fill="none" stroke="#231F20" stroke-width="0.7598" stroke-miterlimit="2.6131" d="M115.867,105.699l30.012,27.668
		L115.867,105.699z"/>
	<path fill="none" stroke="#231F20" stroke-width="0.7598" stroke-miterlimit="2.6131" d="M114.066,108.836l29.363,27.594
		L114.066,108.836"/>
	<path fill="none" stroke="#231F20" stroke-width="0.7598" stroke-miterlimit="2.6131" d="M114.066,108.836l29.363,27.598
		L114.066,108.836z"/>
	<path fill="#231F20" d="M117.777,97.703l39.988,9.367L117.777,97.703"/>
	<path fill="none" stroke="#231F20" stroke-width="0.7598" stroke-miterlimit="2.6131" d="M117.777,97.703l39.988,9.367
		L117.777,97.703z"/>
	<path fill="#231F20" d="M117.199,101.703l39.125,9.723L117.199,101.703"/>
	<path fill="none" stroke="#231F20" stroke-width="0.7598" stroke-miterlimit="2.6131" d="M117.199,101.703l39.125,9.723
		L117.199,101.703z"/>
	<path fill="#231F20" d="M116.914,90.391l39.27-8.828L116.914,90.391"/>
	<path fill="none" stroke="#231F20" stroke-width="0.7598" stroke-miterlimit="2.6131" d="M116.914,90.391l39.27-8.828
		L116.914,90.391z"/>
	<path fill="#231F20" d="M117.73,94.344l39.449-8.539L117.73,94.344"/>
	<path fill="none" stroke="#231F20" stroke-width="0.7598" stroke-miterlimit="2.6131" d="M117.73,94.344l39.449-8.539
		L117.73,94.344z"/>
	<path fill="#231F20" d="M111.727,81.527l31.633-23.453L111.727,81.527"/>
	<path fill="none" stroke="#231F20" stroke-width="0.7598" stroke-miterlimit="2.6131" d="M111.727,81.527l31.633-23.453
		L111.727,81.527z"/>
	<path fill="#231F20" d="M114.066,84.41l31.414-23.129L114.066,84.41"/>
	<path fill="none" stroke="#231F20" stroke-width="0.7598" stroke-miterlimit="2.6131" d="M114.066,84.41l31.414-23.129
		L114.066,84.41z"/>
	<path fill="#231F20" d="M104.738,76.809l17.18-35.703L104.738,76.809"/>
	<path fill="none" stroke="#231F20" stroke-width="0.7598" stroke-miterlimit="2.6131" d="M104.738,76.809l17.18-35.703
		L104.738,76.809z"/>
	<path fill="#231F20" d="M108.09,78.609l17.398-34.836L108.09,78.609"/>
	<path fill="none" stroke="#231F20" stroke-width="0.7598" stroke-miterlimit="2.6131" d="M108.09,78.609l17.398-34.836
		L108.09,78.609z"/>
	<path fill="#231F20" d="M99.551,75.297l-0.074-39.719L99.551,75.297"/>
	<path fill="none" stroke="#231F20" stroke-width="0.7598" stroke-miterlimit="2.6131" d="M99.551,75.297l-0.074-39.719
		L99.551,75.297z"/>
	<path fill="none" stroke="#231F20" stroke-width="0.7598" stroke-miterlimit="2.6131" d="M95.297,75.078V35.234V75.078z"/>
	<path fill="#231F20" d="M80.492,93.813c0,0,2.809-2.055,3.785-2.598c0,0,3.023-1.941,6.047,0.328l1.945,1.078
		c0,0-0.43,1.949-1.945,2.379c0,0-1.512,2.051-7.891-0.32L80.492,93.813"/>
	<path fill="#EFF1B2" d="M82.328,93.918c0,0,1.625-1.617,2.055-1.078c0,0-0.43,0.754,0.539,1.941
		C84.922,94.781,83.629,94.895,82.328,93.918"/>
	<path fill="#EFF1B2" d="M86.762,93.434c0,0-0.977,0.055-0.977-0.484c0,0-1.402-0.758-0.324,1.082c0,0,1.461,1.238,2.484,0.43
		c0,0,0.867-0.543,1.027-1.082c0,0,0.598-1.945-0.859-0.539C88.113,92.84,87.785,93.488,86.762,93.434"/>
	<path fill="#EFF1B2" d="M89.352,93.758c0,0-0.863,1.621,0.27,1.082c0,0,0.977-0.219,1.027-1.137c0,0,0.059-0.543-0.43-0.699
		C90.219,93.004,89.352,92.352,89.352,93.758"/>
	<path fill="#231F20" d="M84.543,88.57c0,0-0.699,1.137-1.676,1.406c0,0-2.051,1.566,0.762,0.973c0,0,2.211-1.297,2.43-1.676
		c0,0,1.727-0.809,3.348-0.105c0,0,1.785,0.539,2.27,1.402c0,0,1.297,1.73,1.242,0.215c0,0-1.348-3.184-3.781-3.133
		C89.137,87.652,87.031,86.789,84.543,88.57"/>
	<path fill="#231F20" d="M84.219,96.621c0,0-1.891-1.402-1.027,0.594c0,0,0.922,1.246,3.242,0.863c0,0,2,0.488,2.973-0.484
		c0,0,2.324-1.406-0.379-0.973c0,0-0.703,0.922-2.594,0.703C86.434,97.324,84.434,97.109,84.219,96.621"/>
	<path fill="#231F20" d="M92.164,101.27c0,0-0.758-1.406-0.813,0.379c0,0,0.109,0.648,0.598,0.699
		C91.949,102.348,92.652,102.57,92.164,101.27"/>
	<path fill="#231F20" d="M94.484,94.73c0,0,0.488-0.699-0.648-0.918c0,0-0.648-0.539-0.539,1.406c0,0,0.434,0.809-0.109,3.078
		c0,0-1.082,1.676,0.27,3.676c0,0,0.813,1.082,2.328,0.434c0,0,0.594-0.273,0.055-0.703c0,0-1.625,0.379-1.625-0.379
		c0,0-1.188-1.137-0.055-2.598C94.16,98.727,94.863,99.16,94.484,94.73"/>
	<path fill="#231F20" d="M98.379,101.484c0,0-2,0.598-0.109,0.703c0,0,1.781,0.055,2.109-0.594c0,0,0.648-1.621-0.543-1.676
		c0,0-0.539,0-0.324,0.648C99.512,100.566,99.785,101.809,98.379,101.484"/>
	<path fill="#231F20" d="M99.57,92.461c0,0,1.508-0.375,2.863-1.512c0,0,2.48-2.219,5.453,0.266l2.754,2.113
		c0,0,0.652,2.215-5.777,2.156C104.863,95.484,101.188,96.297,99.57,92.461"/>
	<path fill="#231F20" d="M101.297,88.246c0,0-3.57,2.484-1.727,2.863c0,0,0.859-0.16,2.105-1.512c0,0,0.914-0.867,3.402-0.652
		c0,0,1.625,0.059,2.973,1.516c0,0,2.488,1.406,0.648-0.594c0,0-1.457-2.055-4.648-2.266
		C104.051,87.602,102.434,87.758,101.297,88.246"/>
	<path fill="#EFF1B2" d="M101.402,92.516c0,0-1.242,0.539,0.215,1.84c0,0,1.68,0.539,1.191-0.383c0,0-0.324-0.379-0.434-1.188
		C102.375,92.785,102.109,92.406,101.402,92.516"/>
	<path fill="#EFF1B2" d="M104.754,93.16c0,0-0.758,0.434-0.813-0.645c0,0-0.809-0.867-0.809,0.594c0,0,0.164,1.137,1.512,1.461
		c0,0,1.512,0.16,1.625-0.488c0,0,0.805-0.809-0.219-0.922C106.051,93.16,104.969,93.219,104.754,93.16"/>
	<path fill="#EFF1B2" d="M108.051,92.68c0,0-1.781,1.133-0.379,1.727c0,0,2.539,0.273,1.625-0.863
		C109.297,93.543,109.133,92.621,108.051,92.68"/>
	<path fill="#231F20" d="M104.215,97.051c0,0-2.703-0.156-1.191,0.492c0,0,1.191,0.969,3.297,0.535c0,0,1.676-0.32,2.27-0.918
		c0,0,0.707-1.023-1.191-0.266C107.398,96.895,105.617,97.484,104.215,97.051"/>
	<path fill="#231F20" d="M91.949,107.648c0,0-2.758-0.383-1.242,0.648c0,0,1.563,0.59,1.996,0.27c0,0,1.078-0.484,2.379-0.328
		c0,0,1.348,0.707,2.16,0c0,0,1.191-0.484,1.625,0c0,0,0.859,0.648,1.727,0l1.297-0.375c0,0,1.348-0.758-1.297-0.488
		c0,0-1.191,0.434-1.297-0.215c0,0-2.105-0.488-3.027,0.648c0,0-1.73,0.324-1.73-0.543
		C94.539,107.266,92.543,106.891,91.949,107.648"/>
	<path fill="#231F20" d="M95.621,110.188c0,0-1.082-0.273-0.703,1.617c0,0,1.352,0.543,2.105,0c0,0-0.047-0.809,0.648-1.023
		c0,0,1.359-0.27,0.219-0.867C97.891,109.914,96.703,110.512,95.621,110.188"/>
	<path fill="none" stroke="#231F20" stroke-miterlimit="2.6131" d="M96.379,118.078c11.852,0,21.457-9.609,21.457-21.457
		c0-11.852-9.605-21.457-21.457-21.457S74.922,84.77,74.922,96.621C74.922,108.469,84.527,118.078,96.379,118.078z"/>
	<path fill="#231F20" d="M108.258,137.91c0,0,2.215-1.301,1.727,0.539c0,0-0.211,0.215-1.188,0.379l-5.402,0.813v-0.867
		C103.395,138.773,107.23,138.285,108.258,137.91"/>
	<path fill="#231F20" d="M86.652,58.414l-1.566,1.027c0,0-1.191,1.242,0.699,0.813c0,0,2.273-0.055,4.863-2.27
		c0,0,2.004-1.297-0.105-1.023C90.543,56.961,88.543,58.094,86.652,58.414"/>
	<path fill="#231F20" d="M84.543,55.77c0,0-3.895,2.379-4.324,3.672c0,0-1.184,1.676,0.543,1.512c0,0,2.215-0.59,3.945-3.559
		C84.707,57.395,87.566,54.902,84.543,55.77"/>
	<path fill="#231F20" d="M79.41,62.688c0,0,8.484-1.137,3.781,0.324c0,0-1.945,1.941-4.48,1.242
		C76.168,63.551,79.895,62.473,79.41,62.688"/>
	<path fill="#231F20" d="M76.328,60.199c0,0-1.945,2.273-2.105,3.676c0,0-0.539,2.055,0.703,0.594l3.727-3.945
		c0,0,1.891-2.375-0.375-1.512L76.328,60.199"/>
	<path fill="#231F20" d="M76.707,64.199c0,0-1.188,0-0.434,0.813c0,0,0.867,0.375,1.191,0
		C77.465,65.012,78.816,64.145,76.707,64.199"/>
	<path fill="#231F20" d="M79.734,65.766c0,0-1.785,0.539-0.434,1.027c0,0,1.461,0,1.621-0.594
		C80.922,66.199,81.461,65.387,79.734,65.766"/>
	<path fill="#231F20" d="M72.926,66.688c0,0-1.57,0.43-2.758,1.508c0,0-1.023,1.57,0.922,1.137c0,0,1.402,0.539,3.836-1.402
		c0,0,3.836-1.73,0.594-1.566L72.926,66.688"/>
	<path fill="#231F20" d="M70.547,62.578c0,0-1.402,0.973-2.051,3.188c0,0-0.109,1.891,1.945,0c0,0,1.781-1.188,2.859-3.621
		c0,0,0.867-1.566,1.84-2.379c0,0,2.484-2.754-0.918-0.375L70.547,62.578"/>
	<path fill="#231F20" d="M66.227,65.277c0,0-1.516,0.598-2.598,2.813c0,0-1.352,4.266,0.594,1.891c0,0,1.355-0.375,2.543-3.293
		C66.766,66.688,68.332,64.254,66.227,65.277"/>
	<path fill="#231F20" d="M65.305,70.898c0,0-0.594,1.027-1.727,1.566c0,0-2,2,0.758,1.734c0,0,1.672-1.516,2.105-1.516
		c0,0,1.84,0.379,2.43-0.648c0,0,1.188-1.297-0.109-1.352c0,0-2.375,1.621-1.508-0.703c0,0,0.59-3.027-0.758-1.137
		C66.496,68.844,66.008,70.629,65.305,70.898"/>
	<path fill="#231F20" d="M63.254,75.926c0,0-3.242,2.594-0.813,2.594c0,0,2.27-1.676,3.352-2c0,0,2.488-0.055,3.293-1.402
		c0,0,2.059-3.457-0.324-1.41C68.762,73.707,66.441,75.656,63.254,75.926"/>
	<path fill="#231F20" d="M60.816,70.504c0,0-2.699,3.695-3.293,8.824c0,0-0.27,1.301,0.379,2.324c0,0,0.918,2.27,0.867-1.297
		c0,0,1.188-4.051,2.047-4.918C60.816,75.438,62.387,69.891,60.816,70.504"/>
	<path fill="#231F20" d="M54.34,80.031c0,0-1.68,2.539-0.598,4.594c0,0,1.676,2.32,1.832-0.215c0,0-0.156-2.813,0.547-3.516
		c0,0,1.563-2.59,0.324-4.539c0,0-0.813-1.727-1.027,0.652C55.418,77.008,55.094,79.492,54.34,80.031"/>
	<path fill="#231F20" d="M57.148,87.867c0,0-1.73,4.055,0,2.434c0,0,4.375-3.406,4.43-4.324c0,0,1.352-1.352-0.055-1.352
		c0,0-0.813-0.215,0.32-1.242c0,0,1.844-0.813,2.219-2.379c0,0,1.137-2.594-0.648-0.758c0,0-1.188,1.301-2.484,1.949
		c0,0-4.324,1.621-3.516,3.566C57.414,85.762,58.656,86.516,57.148,87.867"/>
	<path fill="#231F20" d="M53.852,88.516c0,0-0.27,3.57,0.051,4.27c0,0,0.813,1.512,1.137-0.863l0.484-4.594
		c0,0-0.137-1.863-1.133-0.324C53.793,87.922,53.852,88.516,53.852,88.516"/>
	<path fill="#231F20" d="M49.148,93.219c0,0-1.082,1.137,0.324,4.16c0,0,2.594,2.863,2.324,0c0,0,0.051-0.219-0.867-1.785
		C50.93,95.594,50.34,91.758,49.148,93.219"/>
	<path fill="#231F20" d="M51.258,91.543c0,0-0.977-1.242-0.758,0.809c0,0-0.434,1.516,1.133,2.918c0,0,1.895,1.301,2.004,2.594
		c0,0-0.109,3.461,1.352,2.109c0,0,0.754-2.488-0.332-4.918l-1.723-1.945C52.934,93.109,51.258,93.219,51.258,91.543"/>
	<path fill="#231F20" d="M56.172,100.895c0,0-2.859,3.777-0.324,1.777c0,0,3.73-2.809,3.73-7.402c0,0-0.543-5.563-2.273-1.352
		C57.305,93.918,57.359,99.215,56.172,100.895"/>
	<path fill="#231F20" d="M56.711,105.051c0,0-0.754,4.922,1.191,1.84c0,0,1.133-2,3.027-2.973c0,0,0.863-0.379,1.238-2.055
		c0,0,1.086-3.457-1.563-1.406c0,0-0.324,0.867-0.922,1.191C59.684,101.648,57.094,103.754,56.711,105.051"/>
	<path fill="#231F20" d="M51.742,101.055c0,0,0-2.328,1.242-0.703c0,0,1.836,1.352,1.297,3.457c0,0-0.379,1.027,0.27,1.566
		c0,0,1.191,2.434-0.809,0.813C53.742,106.188,51.09,104.672,51.742,101.055"/>
	<path fill="#231F20" d="M49.578,102.457c0,0-2.16-1.945-1.078,0.379c0,0,1.133,1.676,0.598,2.754c0,0-0.223,3.191,2.16,4.922
		c0,0,2.809,2.32,2.27,0.105c0,0-0.488-2.105-0.543-3.188C52.984,107.43,52.66,104.781,49.578,102.457"/>
	<path fill="#231F20" d="M52.066,111.648c0,0-1.949-0.707-0.434,1.398c0,0,0.215,2.918,3.621,4.762c0,0,1.297,0.805,0.918-0.383
		c0,0-0.648-1.566,0.273-1.676c0,0,0.703,0.598,0.43-1.082c0,0-0.215-3.832,0-4.371c0,0-0.215-1.68-0.918-2.109
		c0,0-0.758-1.188-0.918,0.488c0,0-0.813,1.727-0.648,2.426c0,0,0.215,3.242-0.809,1.516
		C53.582,112.617,52.5,111.484,52.066,111.648"/>
	<path fill="#231F20" d="M58.711,108.887c0,0,0.543-3.133,0.813-0.648c0,0,0,0.867,0.379,1.41c0,0,1.133,1.887,0.484,4.645
		c0,0-0.43,0.754-0.324,1.84c0,0-0.215,2.918-1.027,0.645l-0.105-3.023c0,0-0.379-1.137-0.594-2.652L58.711,108.887"/>
	<path fill="#231F20" d="M55.254,119.266c0,0-3.945-1.137-0.863,1.023c0,0,2.594,2.543,3.836,3.191c0,0,0.703,0.648,1.895,1.297
		c0,0,2.859,0.484,1.348-0.867C61.469,123.91,59.309,120.938,55.254,119.266"/>
	<path fill="#231F20" d="M60.875,119.699c0,0,0.863,3.617,2.32,3.887c0,0,0.922,0.379,0.813-2.32c0,0-0.16-1.516-1.242-2.867
		c0,0-0.863-1.078-0.648-1.676c0,0-0.273-2.055-1.188-0.16C60.93,116.563,60.441,118.344,60.875,119.699"/>
	<path fill="#231F20" d="M58.93,125.477c0,0-2.16,0.438-2.539-0.754c0,0-1.246-1.137-1.246,0.594c0,0,0.867,1.297,1.949,1.512
		l4.32,0.758c0,0,1.625,0.379,1.84,0.973c0,0,1.242,0.758,0.918-0.539c0,0,0.164-1.73-2.16-2.27
		C62.012,125.75,59.254,125.152,58.93,125.477"/>
	<path fill="#231F20" d="M64.926,116.672c0,0,1.246-3.137,1.137,0.215c0,0-0.16,1.188,0.164,2.969c0,0,1.188,3.301-0.434,3.789
		c0,0-1.242,0.863-1.516-0.977c0,0,0.543-1.137,0.219-3.027C64.496,119.641,64.172,117.59,64.926,116.672"/>
	<path fill="#231F20" d="M69.035,120.074c0,0-0.43-1.945-1.457-1.73c0,0-0.543,0.215,0.105,1.082c0,0,0.215,0.379-0.27,1.781
		c0,0-0.539,1.73,0.27,3.031c0,0,0.434,2.484,1.297,1.941c0,0,0.918,0.055,0.594-2.535L69.035,120.074"/>
	<path fill="#231F20" d="M65.844,125.805c0,0-1.348-1.945-0.699,0.758c0,0,0.055,1.617,2.109,3.184c0,0,2.156,0.977,2.371,1.57
		c0,0,1.68,1.891,1.52,0.16c0,0,0.211-2.434-1.84-3.457C69.305,128.02,66.277,126.992,65.844,125.805"/>
	<path fill="#231F20" d="M71.902,121.207c0,0-1.516-1.996-1.191,0.758c0,0,0.758,2.164,0.539,3.297c0,0-0.324,1.082,0.434,1.895
		c0,0,0.375,1.133-0.328,1.348c0,0-0.754,1.516,0.652,1.242c0,0,2.43-0.59,2.43-2.969c0,0-0.27-2.594-1.617-3.785
		C72.82,122.992,72.008,121.965,71.902,121.207"/>
	<path fill="#231F20" d="M62.441,130.07c0,0-3.348,1.027-0.055,1.461c0,0,2.488-0.434,4.109,0c0,0,2.59,0.109-0.164-1.461
		C66.332,130.07,63.848,129.746,62.441,130.07"/>
	<path fill="#231F20" d="M63.145,133.367c0,0-4.488-1.676-1.512,0.488c0,0,2.539,1.891,4.375,1.242c0,0,2.648-1.406,3.297-1.242
		c0,0,0.539-0.055,0.863,0.375c0,0,1.027,0.652,1.301,0.109c0,0,0.699-0.484-0.324-1.133c0,0-1.68-1.676-4.703-0.434
		C66.441,132.773,63.578,134.016,63.145,133.367"/>
	<path fill="#231F20" d="M70.332,135.961c0,0-4.652,2.055-0.543,1.785c0,0,1.027,0.594,3.406,0.27c0,0,2.703-1.297,3.188-0.813
		c0,0,1.84,0.164,0.324-0.754c0,0-2.055-1.242-4.109-0.977C72.598,135.473,71.469,135.582,70.332,135.961"/>
	<path fill="#231F20" d="M73.41,132.074c0,0-1.508-1.352-0.918,0.488c0,0,0.484,1.891,2.434,2.75c0,0,1.727,0.918,3.836,0.543
		c0,0,0.594-0.273-0.434-1.301c0,0-1.402-1.348-0.324-1.621c0,0,1.566,0.059,0.648-1.672c0,0,0.164-1.027-2.27-2
		c0,0-1.566-2.105-1.512-0.164c0,0,3.078,4.543-0.109,3.246C74.762,132.344,73.625,132.016,73.41,132.074"/>
	<path fill="#231F20" d="M77.789,127.641c0,0-0.105-4.484,1.027-0.109c0,0,0.648,1.352,2.594,2.809c0,0,2,1.84,0.324,3.781
		c0,0-2.215,3.246-2.105,0.434c0,0,0.758-1.512,0.539-2.48C80.168,132.074,76.98,128.828,77.789,127.641"/>
	<path fill="#231F20" d="M78.059,138.18c0,0-2.703,0.375-1.078,0.914c0,0,0.809,0.383,1.887,0.598c0,0,3.621,0.488,4.324-0.488
		c0,0,1.086-0.648,1.516-0.539c0,0,1.566-0.051,0.969-0.973c0,0-0.215-1.242-2.32-1.133c0,0-1.355,0.594-2.813,1.023
		C80.543,137.582,78.762,138.504,78.059,138.18"/>
	<path fill="#231F20" d="M83.844,131.906c0,0-1.949-1.836,1.023-0.859c0,0,1.785,0.754,1.895,2.055c0,0,0.16,1.238-0.059,2.047
		c0,0-0.32,0.758,0.434,0.758c0,0,0.758,1.246-0.754,1.246c0,0-2.813-0.27-1.949-3.402C84.434,133.75,84.707,132.398,83.844,131.906
		"/>
	<path fill="#231F20" d="M98.215,137.801c0,0,1.355,0.648,1.188-1.191c0,0-1.242-2.594-4.051-0.488c0,0-1.672,1.73-1.242,4
		c0,0,0.27,0.539-1.027,0.598c0,0-3.836,1.242-7.078,3.402c0,0-2.273,1.137-0.109,2.055c0,0,0.699,0.758,2-1.027
		c0,0,1.84-2.273,5.617-3.727c0,0,0.922-0.539,1.246,0.16c0,0,0.16,1.137,2.379,1.027c0,0,0.973,0.16,1.781-0.973
		c0,0,0.918-1.516-0.922-0.703c0,0-2.43,0.973-2.105-1.133c0,0-0.105-2.598,0.813-2.813C96.703,136.988,97.84,136.5,98.215,137.801"
		/>
	<path fill="#231F20" d="M88.918,137.91c0,0-2.215-1.301-1.727,0.539c0,0,0.219,0.215,1.188,0.379l5.402,0.813v-0.867
		C93.781,138.773,89.949,138.285,88.918,137.91"/>
	<path fill="#231F20" d="M100.754,138.879c0,0-1.566,0.652-1.672,0.324c0,0-0.867,0.918,0.27,1.082c0,0,0.809-0.105,0.809,0.434
		c0,0-0.539,0.594,0.164,0.813c0,0,3.727,1.344,6.75,3.453c0,0,1.086,1.191,1.949,0.543c0,0,1.188-1.027-0.27-1.84
		c0,0-1.406-1.184-5.188-2.215c0,0-3.996-0.863-2-1.781c0,0,3.188-0.324,5.027-2.215c0,0,0.266,0.324,1.891-2.055
		c0,0,0.699-2.43,1.781-3.457c0,0,0.867-1.73,1.402-1.895c0,0,1.57-1.512-1.457-0.539c0,0-1.941,0.867-3.996,6.43
		C106.215,135.961,104.699,138.449,100.754,138.879"/>
	<path fill="#231F20" d="M128.156,70.18h-0.504c-0.508,1.223-1.586-0.863-1.586-0.863c-0.508-1.297-1.16-1.012-1.16-1.012
		c-0.645,0.867-2.805,0-2.805,0c-0.219-0.5-1.223-0.285-1.223-0.285c-1.516,0.285-3.82-1.008-3.82-1.008
		c-1.66-1.227,0.5-0.434,0.5-0.434c0,0.359,1.949,0.215,1.949,0.215c1.512-0.43,0.141-1.078,0.141-1.078
		c-0.504-0.723-4.391-0.363-4.391-0.363c-0.438,0-2.094-0.793-2.094-0.793c-2.012,0.363-1.078-0.574-1.078-0.574
		c0.793-0.215,0.359-0.648,0.359-0.648c-1.293,0.141-0.648-0.648-0.648-0.648c0.289-0.652-0.504-0.723-0.504-0.723l-4.109-1.441
		c-2.52-2.375,2.668-0.219,2.668-0.219c2.664,0.293-3.383-3.168-3.383-3.168c-2.957-3.746,2.516,0.289,2.516,0.289
		s0.797,1.008,2.527,1.438l0.145,1.66c0,0-1.016,0.363,1.656,0.719c0,0,2.59,0,1.152,0.867c0,0-1.516-0.289-0.797,0.648l1.441,0.578
		l0.508,0.863c0,0,4.246-0.215,4.395,0.574c0,0,1.227,0.363,1.152,1.012c0,0-0.359,1.297,0.574,1.008c0,0,1.016,0.719,1.73,0.574
		c0,0,0.148,0.289,0.648-1.004c0,0,0.789-0.578,0.938,0.934c0,0,1.371,1.223,2.02,1.371
		C127.074,68.668,129.523,70.395,128.156,70.18"/>
	<path fill="#231F20" d="M113.563,58.199c0,0-2.324-0.754-0.219,0.922c0,0,4.004,2.32,4.488,3.133c0,0,2.594,2.809,1.402-0.109
		C119.234,62.145,117.398,58.852,113.563,58.199"/>
	<path fill="#231F20" d="M121.344,60.633c0,0-1.352-3.023-0.484,1.133c0,0,1.188,2.648,2.379,3.676c0,0,0.977,1.246,0.645-1.242
		C123.883,64.199,121.344,61.063,121.344,60.633"/>
	<path fill="#231F20" d="M126.098,63.121c0,0-1.023-1.895-0.699,0.813c0,0,0.863,2.535,1.945,4.156c0,0,1.512,2.16,1.84,1.082
		c0,0,0.32-1.191-0.273-1.945C128.91,67.227,126.75,65.172,126.098,63.121"/>
	<path fill="#231F20" d="M123.832,70.574c0,0-1.891-0.809-2.219-0.809c0,0-1.461,0-0.27,0.973c0,0,2.164,0.273,2.648,1.027
		c0,0,0.758,0.434,1.023,0.754c0,0,4.383,2.813,4.168,0.863C129.184,73.383,128.316,71.172,123.832,70.574"/>
	<path fill="#231F20" d="M127.902,75.223c0,0-3.602-0.469-1.91,0.684c0,0,2.738,0.688,2.988,1.012c0,0,1.91,1.691,2.629,1.797
		c0,0,2.09,1.375,1.188-0.32C132.797,78.395,131.902,75.547,127.902,75.223"/>
	<path fill="#231F20" d="M134.57,69.133c0,0-1.262-3.492-0.941,1.008c0,0-0.039,1.371,0.219,2.164c0,0,0.645,0.938,0.355,2.594
		c0,0-0.102,2.773,0.977,1.191c0,0,0.902-1.156,0.074-3.965C135.254,72.125,134.461,70.469,134.57,69.133"/>
	<path fill="#231F20" d="M129.074,79.383c0,0-1.785-2.051-1.301,0.168c0,0,0.918,1.777,4.813,3.344c0,0,1.457,0.324,1.516,0.977
		c0,0,1.617,2.105,1.457,0.105c0,0,0.754-1.566-3.301-3.023C128.211,79.492,130.211,79.602,129.074,79.383"/>
	<path fill="#231F20" d="M118.48,124.453c0,0-0.973,0.539-2.055,3.996c0,0-0.105,1.516-1.078,2.434c0,0-2.27,2,0.16,1.023
		c0,0,1.73-0.914,2.488-2.535l1.133-3.621c0,0,0.484-1.73,0.758-1.73c0,0,1.402-1.621-0.055-0.809
		C119.832,123.211,118.855,124.074,118.48,124.453"/>
	<path fill="#231F20" d="M127.129,114.777c0,0,0.863-2.16-0.543-0.109c0,0-1.137,2.328-1.461,3.406c0,0-0.699,0.484-0.32,3.297
		c0,0,0.27,1.352-0.219,2.648c0,0-0.43,2.215,0.754,0.219c0,0,0.652-0.438,1.676-3.734
		C127.016,120.504,127.18,115.914,127.129,114.777"/>
	<path fill="#231F20" d="M133.504,121.805c0,0-1.461,0.105-1.84,0.594c0,0-0.805,0.324-0.863,0.27c0,0-0.973,0.543,0.648,0.594
		c0,0,2.16,0.055,2.434-0.16c0,0,0.543-0.703,1.781-0.594c0,0,1.57-0.543,2.16-1.457l3.246-2.547c0,0,1.289-0.754,1.078-1.617
		c0,0-0.648-0.648-1.078,0.164c0,0-0.648,0.645-1.895,1.348c0,0-3.293,1.457-3.945,2.055
		C135.23,120.453,134.641,121.531,133.504,121.805"/>
	<path fill="#231F20" d="M142.203,104.133c0,0-2.379,2.434-2.863,3.57c0,0-2.379,3.348-0.43,2.105c0,0,5.129-5.402,5.453-6.699
		c0,0,1.84-2.598,0.055-1.566C144.418,101.543,143.66,103.16,142.203,104.133"/>
	<path fill="#231F20" d="M134.367,93.004c0,0-0.973-1.461-0.699,0.484c0,0,0.434,0.867,1.563,2.27c0,0,0.918,1.457,1.027,2.703
		c0,0-0.215,2.918,0.703,1.781c0,0,0.648-0.109,0.43-2.699C137.391,97.543,137.449,96.246,134.367,93.004"/>
	<path fill="#231F20" d="M143.07,83.219c0,0-0.598-1.348-0.922,0.219c0,0-0.109,3.137-1.242,4.055c0,0-0.758,0.59-0.484,2.535
		c0,0,0.699,2,0.973,0.379c0,0-0.109-1.563,0.375-1.891c0,0,0.863-0.703,1.031-1.57C142.801,86.945,143.555,83.871,143.07,83.219"/>
	<path fill="#231F20" d="M139.879,76.734c0,0-0.813-1.781-0.754,0.813c0,0,0.594,3.297,0.32,4.539l-0.379,3.078
		c0,0-0.539,2.648,0.438,1.246c0,0,0.973-0.813,1.184-3.625c0,0-0.375-2.594-0.59-4.32
		C139.879,76.734,139.879,76.734,139.879,76.734"/>
	<path fill="#231F20" d="M122.102,129.965c0.809-1.945,3.082-0.324,3.082-0.324c4.754,0.16,8.805-3.078,8.805-3.078
		c0.438-0.922,3.188-1.41,3.188-1.41c3.301-1.188,3.676-3.512,3.676-3.512c-0.055-0.484-2.754,1.406-2.754,1.406
		c-1.191,0.813-3.242,1.027-3.242,1.027c-1.137-0.273-4.43,0.488-4.43,0.488c-1.461,0.16-2.652,1.297-2.652,1.297
		c-1.727,1.621,2.543,0.484,2.543,0.484c1.617,0.109-2.27,1.297-2.27,1.297c-0.703,0.215-2.488,0.379-2.488,0.379
		c-1.461,0.109-0.055-1.191-0.055-1.191c1.676-0.594,4.434-4.375,4.434-4.375s0-0.055,1.078-1.57c1.082-1.512,1.895-0.43,1.895-0.43
		c1.785,0.598,4.109-1.84,4.109-1.84c0.32-0.863,2.32-2.375,2.32-2.375c0.051-0.43,3.188-3.461,3.188-3.461
		c1.133-1.941-2.105,0.488-2.105,0.488c-1.082,0.973-2.707,2.105-2.707,2.105c-1.566,0.918-4.211,3.242-4.211,3.242
		c-1.512,1.027,0.434-1.836,0.434-1.836c0.43-1.512,1.945-1.293,1.945-1.293c1.352-0.219,3.672-2.598,3.672-2.598
		c1.242-0.918,4-3.352,4-3.352c3.348-3.078,1.617-3.078,1.617-3.078c-0.266-0.543-1.457,0.973-1.668,1.406
		c-0.223,0.434-3.246,2.434-3.246,2.434c-1.621,0.805-4.051,4.105-4.051,4.105c-1.301,1.082-0.867-0.867-0.867-0.867
		c1.191-1.676,1.461-3.836,1.461-3.836c1.133-1.402,1.512-4.43,1.512-4.43c0.055-1.461,2.699-3.352,2.699-3.352
		c2.758-2.758,2.703-4.215,2.703-4.215c0.219-0.973,1.625-3.945,1.625-3.945c-0.109-1.73-1.516,1.023-1.516,1.023
		c-0.699,2.328-1.895,3.297-1.895,3.297c-1.617,1.301-2.16,3.352-2.16,3.352c-1.672,3.352-0.484-3.023-0.484-3.023
		c0.219-1.082,2.16-1.676,2.16-1.676c1.785-1.512,2.379-7.836,2.379-7.836c0.109-3.406-0.594-1.082-0.594-1.082
		c-0.918,3.297-1.242,4.109-1.242,4.109c-0.219,0.863-1.73,3.078-1.73,3.078c-1.297,2.594-1.133-3.242-1.133-3.242
		c0.051-1.945-1.191-5.891-1.191-5.891c-0.164-0.918-0.484-2.051-0.484-2.051c-0.543-1.137,0.539-3.027,0.539-3.027
		c1.137-2.863-0.055-8.539-0.055-8.539c-1.133-3.672-0.914,0.813-0.914,0.813l-0.219,7.027c0,2.156-1.406-1.027-1.406-1.027
		c-0.754-2.055-2.539-3.68-2.539-3.68c-1.078-1.242-2.273-3.133-2.273-3.133s-0.813-0.863-0.969,0.379c0,0-0.055,0.539,0.754,1.188
		c0,0,3.676,4.324,4.328,6.051c0,0,2.105,4.379,2.375,5.895c0,0,1.84,4.645-0.648,2.703c0,0-6.32-5.191-4.973-2.813
		c0,0,0.918,1.461,1.785,2.16c0,0,2.16,1.246,2.59,2.703l0.867,1.352c0,0,0.379,2.703,0.867,0.863c0,0,0.051-2.055,0.488-0.27
		c0,0,1.672,4.051-0.383,10.863c0,0-0.645,3.836-1.133,0.594c0,0,0.59-2.109-2.43-5.297c0,0-1.68-2.539-0.98,0.164
		c0,0,2.328,4.484,2.383,6.371c0,0-0.648,1.41,0.379,1.949c0,0,1.078,0.109,0.324,1.57c0,0-0.598,1.406-0.867-0.219
		c0,0-0.16-1.73-1.781-4.324c0,0-1.949-3.621-1.086,0.867c0,0,0.762,1.891,1.516,3.887l0.27,4.324c0,0-0.863,4.379-1.137,1.516
		c0,0,0-3.137-1.078-4.488c0,0-0.211-0.484-0.051-1.727c0,0-0.703-2.324-0.922,0.055c0,0-0.16,2.484,0.324,4.051
		c0,0,0.703,1.57,0.539,2.594c0,0-0.539,0.922,0.273,1.625c0,0-0.813,3.887-1.457,0.914l0.266-2.863c0,0-0.215-1.512-0.805-2.27
		c0,0-0.492-1.352,0-2.645c0,0,0.051-2.164-0.871,0.215c0,0-0.648,1.078-0.266,3.402c0,0,0.484,2.375,0.16,3.621
		c0,0-0.703,0.758,0.164,2.754c0,0,0.863,0.27-0.215,1.676c-1.082,1.406-1.082,1.352-1.082,1.352s-3.41,3.891-6.434,5.727
		c0,0-2.055,2.055-1.082,0.055c0,0,2.059-1.945,2.598-4.32c0,0,0.105-2.598,0-3.082c0,0,1.242-2.484-0.648-0.539
		c0,0-0.758,0.539-0.652,1.566c0,0,0.434,0.973-0.645,1.945c0,0-1.73,1.621-1.789,4.215c0,0,0.109,0.484-0.371,0.648
		c0,0-0.543,0.488-0.109,1.191c0,0,1.082,0,0,0.754c0,0-2.594,2.434-4.703,2.918c0,0-4,1.941-1.781-0.754c0,0,1.836-2,2.379-4.598
		c0,0,0-0.973,0.59-2.105c0,0,0.539-2.051-0.863-0.105c0,0-0.324,1.563-1.512,2.211c0,0-2.438,2.652-2.375,4.758
		c0,0-0.598,0.109-0.324,1.406c0,0,1.133,0.109,0.215,0.59c0,0-1.676,0.324-1.461,1.137c0,0,0.215,2.164,1.461,0.703
		c0,0,0.266-0.969,2.211-1.406c0,0,0.539-1.133,1.461-0.16c0,0-0.652,0.813,2.215,1.082c0,0,2.375,0.27,5.242-1.297
		c0,0,0.27-0.434,1.188-0.703c0,0,2.379-0.648-0.699-0.863c0,0-3.566-0.059-4.652,0.809c0,0-3.672,1.406-1.996-0.105
		c0,0,1.242-1.352,3.887-2.004c0,0,0.867-0.055,1.516,0.219c0,0,2.055,0.703,3.941,0.16c0,0,2.223,0.059,4.492-1.781
		c0,0,0.43-0.379,1.133-0.324c0,0,1.512-0.539,0-1.137c0,0-2.32-0.16-3.676,1.027c0,0-1.781,0.648-2.863,0.219
		c0,0-1.402-0.379-2.484,0.43c0,0-1.301,0.488-0.219-0.863L122.102,129.965"/>
</g>
</svg>
